<svg width="512" height="512" viewBox="0 0 512 512" fill="none" xmlns="http://www.w3.org/2000/svg">
  <defs>
    <linearGradient id="g1" x1="120" y1="120" x2="390" y2="390">
      <stop offset="0%" stop-color="#22C55E"/>
      <stop offset="100%" stop-color="#0EA5E9"/>
    </linearGradient>
    <linearGradient id="g2" x1="160" y1="120" x2="340" y2="340">
      <stop offset="0%" stop-color="#38BDF8"/>
      <stop offset="100%" stop-color="#2563EB"/>
    </linearGradient>
  </defs>

  <!-- Background -->
  <rect width="512" height="512" rx="100" fill="#0F172A"/>

  <!-- Clipboard -->
  <rect x="140" y="110" width="230" height="280" rx="28" fill="#E2E8F0"/>
  <rect x="190" y="85" width="130" height="45" rx="18" fill="#CBD5E1"/>

  <!-- Task lines -->
  <rect x="180" y="170" width="110" height="10" rx="5" fill="#94A3B8"/>
  <rect x="180" y="210" width="140" height="10" rx="5" fill="#94A3B8"/>
  <rect x="180" y="250" width="90" height="10" rx="5" fill="#94A3B8"/>

  <!-- Check mark -->
  <path d="M190 275L235 320L330 210" stroke="url(#g1)" stroke-width="28" stroke-linecap="round" stroke-linejoin="round"/>

  <!-- Progress bars -->
  <rect x="120" y="320" width="35" height="50" rx="10" fill="#F59E0B"/>
  <rect x="165" y="290" width="35" height="80" rx="10" fill="#0EA5E9"/>
  <rect x="210" y="250" width="35" height="120" rx="10" fill="#22C55E"/>

  <!-- App Name -->
  <text x="256" y="450" text-anchor="middle"
        font-family="Arial, sans-serif"
        font-size="38"
        font-weight="700"
        fill="url(#g2)">
    TaskManager
  </text>
</svg>
